<svg xmlns="http://www.w3.org/2000/svg" xmlns:xlink="http://www.w3.org/1999/xlink" width="1919" height="723" viewBox="0 0 1919 723">
  <defs>
    <clipPath id="clip-path">
      <rect id="Rectangle_2918" data-name="Rectangle 2918" width="1919" height="723" transform="translate(1 76)" fill="#fff" stroke="#707070" stroke-width="1" opacity="0.5"/>
    </clipPath>
    <linearGradient id="linear-gradient" x1="0.387" y1="0.305" x2="0.006" y2="0.5" gradientUnits="objectBoundingBox">
      <stop offset="0" stop-color="#650c81"/>
      <stop offset="1" stop-color="#650c81"/>
      <!--
        25108d
      -->
    </linearGradient>
    <linearGradient id="linear-gradient-2" x1="0.443" y1="0.532" x2="0.011" y2="1.337" gradientUnits="objectBoundingBox">
      <stop offset="0" stop-color="#630681"/>
      <stop offset="1" stop-color="#630681"/>
      <!--110b93-->
    </linearGradient>
    <linearGradient id="linear-gradient-3" x1="0.571" y1="0.377" x2="0.02" y2="0.669" gradientUnits="objectBoundingBox">
      <stop offset="0" stop-color="#6c078d"/>
      <stop offset="1" stop-color="#650c81"/>
      <!--
        0e0798
      -->
    </linearGradient>
  </defs>
  <g id="Mask_Group_495" data-name="Mask Group 495" transform="translate(-1 -76)" clip-path="url(#clip-path)">
    <path id="Path_38385" data-name="Path 38385" d="M0,584.822s101.424,143.817,419.793,74.724,472.693-155.775,778.681-74.724,251.813,273.5,722.848,255.408-.055-751.766-.055-751.766H0Z" transform="translate(0.532 -53.632)" fill="url(#linear-gradient)"/>
    <path id="Path_38386" data-name="Path 38386" d="M0,417.075s188.624,193.441,673.016,17.761S1567.616,411.7,1707.6,506.38s215.57,59.871,215.57,59.871V97.736H0Z" transform="translate(1 -51)" fill="url(#linear-gradient-2)"/>
    <path id="Path_38389" data-name="Path 38389" d="M0,154.945s217.912,199.69,786.52,81.514S1400.5,97.12,1400.5,97.12H0Z" transform="translate(1 -21)" fill="url(#linear-gradient-3)"/>
    <g id="Ellipse_79543" data-name="Ellipse 79543" transform="translate(1125 112)" fill="none" stroke="#6e61c4" stroke-width="6" opacity="0.2">
      <circle cx="23.5" cy="23.5" r="23.5" stroke="none"/>
      <circle cx="23.5" cy="23.5" r="20.5" fill="none"/>
    </g>
    <g id="Ellipse_79548" data-name="Ellipse 79548" transform="translate(1761 318)" fill="none" stroke="#fff" stroke-width="4" opacity="0.1">
      <circle cx="18.5" cy="18.5" r="18.5" stroke="none"/>
      <circle cx="18.5" cy="18.5" r="16.5" fill="none"/>
    </g>
    <g id="Ellipse_79542" data-name="Ellipse 79542" transform="translate(160 484)" fill="none" stroke="#fff" stroke-width="4" opacity="0.1">
      <circle cx="18.5" cy="18.5" r="18.5" stroke="none"/>
      <circle cx="18.5" cy="18.5" r="16.5" fill="none"/>
    </g>
    <g id="Rectangle_2888" data-name="Rectangle 2888" transform="translate(868.969 218.854) rotate(-45)" fill="none" stroke="#fff" stroke-width="2" opacity="0.3">
      <rect width="26" height="26" stroke="none"/>
      <rect x="1" y="1" width="24" height="24" fill="none"/>
    </g>
    <g id="Rectangle_2912" data-name="Rectangle 2912" transform="translate(1683.969 731.854) rotate(-45)" fill="none" stroke="#6f53af" stroke-width="3" opacity="0.854">
      <rect width="26" height="26" stroke="none"/>
      <rect x="1.5" y="1.5" width="23" height="23" fill="none"/>
    </g>
    <line id="Line_175" data-name="Line 175" y2="31" transform="translate(1186.5 19.5)" fill="none" stroke="#012073" stroke-width="1" opacity="0.1"/>
  </g>
</svg>
