<svg id="Capa_1" data-name="Capa 1" xmlns="http://www.w3.org/2000/svg" viewBox="0 0 1920 800"><defs><style>.cls-1{fill:#420c7e;}.cls-1,.cls-2{stroke:#000;stroke-miterlimit:10;}.cls-2{fill:#201f24;}</style></defs><title>Mesa</title><polygon class="cls-1" points="1.03 -1.14 0.5 800.5 1917.28 800.5 1922.53 -1.14 1.03 -1.14"/><path class="cls-2" d="M-288,696c-.1-62.63,58.11-124.18,141.3-175.17C-60.49,468,52.52,426.48,155.25,406.93,601,322.12,727.42,674,1156.1,643.87c464.17-32.64,673.37-470.36,900.76-355.4,117.91,59.6,169.3,231.69,147.07,357.44-46.92,265.38-441.53,436.43-755.75,459.58C980.32,1140,470,862.75,213,873.66c-81.12,3.44-162.43-4.23-243.58-1.53C-99,874.4-130.94,877.79-170,859.87-235.48,829.87-287.89,755.25-288,696Z"/></svg>